<?xml version="1.0" encoding="utf-8"?>
<!-- Generator: Adobe Illustrator 21.1.0, SVG Export Plug-In . SVG Version: 6.00 Build 0)  -->
<svg version="1.1" id="New" xmlns="http://www.w3.org/2000/svg" xmlns:xlink="http://www.w3.org/1999/xlink" x="0px" y="0px"
	 viewBox="0 0 454 71" style="enable-background:new 0 0 454 71;" xml:space="preserve">
<style type="text/css">
	.st0{fill:#FFFFFF;}
	.st1{fill:url(#SVGID_1_);}
	.st2{fill:#D81222;}
</style>
<g>
	<g>
		<path class="st0" d="M73.1,23.3c0.1,0.1,0.2,0.2,0.2,0.3s-0.1,0.1-0.3,0.1H52.5c-0.6,0-1.2,0.1-1.7,0.3l-0.7-0.9
			c0.8,0.1,1.4,0.1,1.8,0.1H54v-5.1c0-0.4,0-1.2-0.1-2.4l1.5,1.1H68l0.7-1l1.5,1.1c0.1,0.1,0.2,0.2,0.2,0.2s-0.1,0.1-0.2,0.2
			l-0.6,0.4v5.4h1l1-1.3L73.1,23.3z M71.3,7.5c0.1,0.1,0.1,0.2,0.1,0.2s-0.1,0.1-0.2,0.2l-0.8,0.4c0,1.8-0.1,3.3-0.3,4.4
			c-0.2,1.1-0.5,1.8-1.1,2.2c-0.6,0.3-1,0.5-1.2,0.5c-0.1,0-0.2-0.1-0.2-0.2c-0.1-0.4-0.4-0.7-0.7-0.9c-0.3-0.2-0.9-0.4-1.5-0.6
			l0.1-0.3c1,0.3,1.7,0.4,2.2,0.4s0.9-0.1,1.1-0.4s0.4-1,0.5-2.1s0.1-2.3,0.1-3.6h-2.8l-0.5,0.6c-0.1,0.1-0.2,0.1-0.2,0.1
			c-0.1,0-0.1,0-0.2-0.1l-1.1-1l1-0.5l1-2.7h-8.7c-0.2,3.8-1.1,6.7-2.6,8.6s-3,3.2-4.6,4l-0.1-0.3c1.8-1.3,3.2-2.8,4.3-4.5
			s1.7-4.3,1.9-7.7h-3.1c-0.5,0-1,0.1-1.4,0.3l-0.6-0.8c0.3,0,0.8,0,1.4,0h13.3l0.7-0.9l1.3,1.1C68.5,4,68.5,4,68.5,4.1
			c0,0.1-0.1,0.1-0.2,0.1l-0.7,0.3l-1.3,2.8h2.9l0.8-1L71.3,7.5z M58.9,23.1v-5.8h-3.7v5.8H58.9z M64.4,8.1c0.1,0.1,0.1,0.1,0.1,0.2
			c0,0.1-0.1,0.1-0.2,0.1l-0.6,0.2c-0.5,1-1,1.9-1.5,2.6c1.5,0.8,2.3,1.5,2.3,2.3c0,0.2,0,0.3-0.1,0.5s-0.2,0.2-0.4,0.2
			s-0.4-0.2-0.8-0.6s-0.9-0.9-1.6-1.5c-1.2,1.4-3.1,2.6-5.7,3.9l-0.2-0.3c2.3-1.4,4-2.7,5.2-4.1c-1-0.7-1.9-1.2-2.8-1.5l0.1-0.3
			c1,0.2,2.1,0.5,3.2,1.1c0.6-0.8,1-1.7,1.4-2.7h-3.6c-0.5,0-0.8,0-1,0.1l-0.6-0.7c0.2,0,0.7,0,1.3,0h3.8l0.6-0.7L64.4,8.1z
			 M63.6,23.1v-5.8H60v5.8H63.6z M68.5,23.1v-5.8h-3.7v5.8H68.5z"/>
		<path class="st0" d="M98.4,23.1c-1,0.2-1.7,0.5-2,1.1c-0.1,0.2-0.2,0.3-0.3,0.3s-0.2,0-0.4,0c-3.5,0-6.4-0.1-8.7-0.2
			c-2.3-0.1-3.8-0.4-4.6-0.8s-1.6-1.3-2.3-2.5c-0.3-0.4-0.5-0.6-0.7-0.6c-0.3,0-0.8,0.5-1.5,1.4s-1.1,1.7-1.3,2.4L75,23.3
			c2.4-2.2,3.7-3.4,3.9-3.5v-7.6h-1.6c-0.6,0-1.2,0.1-1.7,0.3l-0.7-0.9c0.6,0.1,1.2,0.1,1.8,0.1h1.8l0.7-1l1.4,0.9
			c0.1,0.1,0.2,0.2,0.2,0.3s-0.1,0.2-0.3,0.3l-0.6,0.4V20c0.1,0.2,0.2,0.3,0.3,0.5c0.4,0.8,1,1.4,1.8,1.9s1.7,0.8,2.8,0.9
			c1.1,0.1,2.5,0.1,4.2,0.1c3.4,0,6.4-0.2,9.2-0.6L98.4,23.1z M76.9,3.3c2.2,1.3,3.2,2.3,3.2,3.2c0,0.3-0.1,0.6-0.2,0.8
			c-0.2,0.3-0.3,0.4-0.5,0.4c-0.3,0-0.5-0.2-0.6-0.5c-0.2-1.2-0.9-2.4-2.1-3.7L76.9,3.3z M97.9,11.7c-0.8,0-1.4,0.3-1.8,0.8
			c-0.1,0.1-0.2,0.1-0.3,0.1c-0.2,0-0.6-0.2-1.3-0.6s-1.4-1-2-1.7s-1.1-1.5-1.6-2.5h-1c0,1,0,1.7,0,2.3c0,0.5,0,0.9,0,0.9
			c0,0.3-0.2,0.5-0.5,0.6s-0.5,0.2-0.6,0.2s-0.1-0.2-0.1-0.5l0.1-3.5h-0.5c-2.1,2.5-4.4,4.3-6.9,5.4l-0.2-0.3c1-0.6,2.1-1.4,3.2-2.4
			s1.9-1.9,2.5-2.7h-2.3c-0.6,0-1.2,0.1-1.7,0.3l-0.7-0.9C83,7.3,83.6,7.3,84,7.3h4.9V4.8c-2.2,0.2-4.1,0.4-5.8,0.4V4.8
			c4.6-0.5,8.2-1.2,10.8-2.2l1.2,1.1c0.1,0.1,0.2,0.2,0.2,0.3c0,0.1-0.1,0.1-0.2,0c-0.2,0-0.4-0.1-0.8-0.1S93.4,4,92.6,4.1
			S91,4.4,90.1,4.5v2.7h4.8l1-1.3l1.4,1.3c0.2,0.2,0.3,0.3,0.3,0.4s-0.1,0.1-0.4,0.1h-5.6c0.6,1,1.4,1.9,2.6,2.5
			c1.1,0.6,2.5,1,4,1.1v0.4H97.9z M95.5,16.3c0.1,0.1,0.2,0.2,0.2,0.3s-0.1,0.2-0.3,0.3L95,17.2c-0.1,0.5-0.1,1-0.3,1.7
			s-0.3,1.1-0.4,1.4s-0.3,0.5-0.6,0.8s-0.6,0.5-0.9,0.6c-0.4,0.2-0.6,0.2-0.7,0.2s-0.2-0.1-0.2-0.2c-0.1-0.3-0.3-0.6-0.6-0.8
			c-0.3-0.2-0.8-0.4-1.6-0.6v-0.4c1.1,0.2,1.9,0.3,2.4,0.3s0.8-0.1,1-0.3s0.4-0.6,0.6-1.3s0.3-1.4,0.3-2.1h-2.1l-0.3,0.4
			C91.5,17,91.5,17,91.4,17s-0.2,0-0.3-0.1l-1.2-0.7l0.9-0.6l0.6-1.8h-3.8c-0.2,2.1-0.7,3.7-1.4,4.8c-0.7,1.1-2,2-3.9,2.9l-0.1-0.2
			c1.6-1.1,2.7-2.1,3.3-3.2s0.9-2.4,0.9-4.3h-0.9c-0.5,0-0.9,0.1-1.2,0.2l-0.7-0.7c0.4,0,0.9,0,1.5,0h6l0.7-0.9l1.2,0.9
			c0.1,0.1,0.2,0.2,0.2,0.2c0,0.1-0.1,0.1-0.3,0.2l-0.5,0.2l-0.6,2H94l0.6-0.8L95.5,16.3z"/>
		<path class="st0" d="M108.3,17.6c-2.5,2.7-3.9,4.5-4.3,5.5c-0.1,0.1-0.1,0.2-0.2,0.2s-0.1,0-0.2-0.1l-1.2-1.4
			c0.8-0.4,1.1-1,1.1-1.6V11l-1.5,0.1c-0.6,0-1.1,0.2-1.6,0.4l-0.8-0.8c0.5,0,1.1,0,1.8,0l2-0.1l0.8-1.1l1.5,1.3
			c0.1,0.1,0.1,0.2,0.1,0.2s-0.1,0.2-0.2,0.3l-1,0.6v8.4l3.3-2.9L108.3,17.6z M102.8,2.6c2.1,1.3,3.2,2.4,3.2,3.3
			c0,0.3-0.1,0.7-0.3,1c-0.2,0.3-0.4,0.5-0.6,0.5s-0.3-0.1-0.4-0.2s-0.1-0.4-0.2-0.9s-0.3-1-0.6-1.7c-0.3-0.6-0.8-1.2-1.4-1.8
			L102.8,2.6z M123.1,22.5c0.2,0.2,0.3,0.3,0.3,0.4S123.3,23,123,23h-15c-0.6,0-1.2,0.1-1.7,0.2l-0.7-0.9c0.8,0.1,1.4,0.1,1.8,0.1
			h2.6v-9.6c0-1,0-2.1-0.1-3.4l1.8,0.9c0.2,0.1,0.3,0.2,0.3,0.3s-0.1,0.2-0.2,0.3l-0.6,0.4v11h3.9V5h-4.8c-0.6,0-1.2,0.1-1.7,0.2
			l-0.7-0.9c0.8,0.1,1.4,0.1,1.8,0.1h10l1.1-1.5l1.7,1.5c0.2,0.1,0.2,0.3,0.2,0.4c0,0.1-0.1,0.2-0.4,0.2h-6.1v7.5h3.2l1.1-1.5
			l1.4,1.5c0.1,0.1,0.2,0.3,0.2,0.4s-0.1,0.2-0.3,0.2h-5.7v9.2h4.1l1.2-1.6L123.1,22.5z"/>
		<path class="st0" d="M148.2,17.3c-1,0-1.7,0.4-2.1,1.2c-0.1,0.1-0.1,0.2-0.2,0.2c-0.2,0-0.8-0.2-1.8-0.7s-2.1-1.2-3.2-2.1
			c-1.1-0.9-2.1-2-2.8-3.3h-4.8c-1.7,2.9-4.4,5.3-8.3,7.4l-0.2-0.3c3.3-2.1,5.7-4.5,7.2-7h-4.9c-0.6,0-1.2,0.1-1.7,0.3l-0.7-0.9
			c0.8,0.1,1.4,0.1,1.8,0.1h5.8c0.5-0.9,1-1.9,1.3-2.9h-5.3c-0.6,0-1.2,0.1-1.7,0.3l-0.7-0.9c0.8,0.1,1.4,0.1,1.8,0.1h6
			c0.6-1.7,1.1-3.8,1.4-6.3l1.9,0.9c0.1,0.1,0.2,0.1,0.2,0.2c0,0.1-0.1,0.2-0.3,0.3c-0.2,0.1-0.4,0.3-0.5,0.4
			c-0.1,0.1-0.2,0.3-0.2,0.6c-0.3,1.3-0.7,2.6-1.2,3.9h8.2l1-1.4l1.4,1.4c0.1,0.1,0.2,0.3,0.2,0.4c0,0.1-0.1,0.1-0.3,0.1h-10.6
			c-0.5,1.3-0.9,2.2-1.3,2.9h11.3l1.1-1.3l1.4,1.4c0.1,0.1,0.2,0.3,0.2,0.4s-0.1,0.1-0.3,0.1h-8.6c1.3,1.5,2.7,2.7,4.1,3.3
			c1.4,0.7,3.2,1,5.4,1L148.2,17.3L148.2,17.3z M142.2,17.6l-0.5,0.3c0,0.9-0.1,1.9-0.2,3c-0.1,1.1-0.2,1.9-0.3,2.2
			c-0.1,0.4-0.3,0.7-0.6,0.9c-0.3,0.3-0.7,0.5-1.2,0.8s-0.8,0.4-0.9,0.4c-0.1,0-0.1,0-0.1-0.1c-0.1-0.5-0.3-0.8-0.6-1.1
			c-0.3-0.3-1-0.5-2.1-0.9l0.1-0.3c1.2,0.3,2.1,0.5,2.7,0.5c0.6,0,1-0.1,1.3-0.4c0.3-0.2,0.4-1.1,0.5-2.4c0.1-1.4,0.1-2.5,0.1-3.3
			h-5.7c-0.5,2.5-1.4,4.4-2.7,5.6c-1.3,1.2-3.4,2.2-6.1,2.8l-0.1-0.3c2.6-0.9,4.4-2,5.5-3.1c1.1-1.1,1.8-2.8,2.2-5h-1
			c-0.6,0-1.1,0.1-1.6,0.3l-0.7-0.9c0.8,0.1,1.4,0.1,1.7,0.1h8.3l0.5-0.6l1.4,1c0.1,0.1,0.2,0.2,0.2,0.3
			C142.3,17.4,142.3,17.5,142.2,17.6z M128.6,3.3c0.9,0.4,1.8,1,2.5,1.6s1.1,1.2,1.1,1.7c0,0.3-0.1,0.6-0.3,0.9
			c-0.2,0.3-0.4,0.4-0.6,0.4c-0.3,0-0.5-0.3-0.6-0.9c-0.2-1.1-1-2.2-2.2-3.3L128.6,3.3z M142.9,4.4c0.1,0.1,0.2,0.1,0.2,0.2
			c0,0-0.1,0.1-0.3,0.1s-0.4,0.1-0.6,0.2c-0.2,0.1-0.4,0.3-0.8,0.7l-2.7,2.7l-0.4-0.2c1.3-1.7,2.3-3.3,3-4.7L142.9,4.4z"/>
	</g>
	<g>
		<g>
			<path class="st0" d="M57.6,66.3h-7.2V31.6h7.2V66.3z"/>
			<path class="st0" d="M84.5,42.1c1.7,1.4,2.5,3.7,2.5,6.9v17.3h-6.9V50.7c0-1.3-0.2-2.4-0.5-3.1c-0.7-1.3-1.9-2-3.7-2
				c-2.3,0-3.8,1-4.6,2.9c-0.4,1-0.7,2.3-0.7,3.9v13.9h-6.7V40.7h6.5v3.7c0.9-1.3,1.7-2.3,2.4-2.8c1.4-1,3.1-1.6,5.2-1.6
				C80.7,40,82.8,40.7,84.5,42.1z"/>
			<path class="st0" d="M90.2,45.6v-4.8h3.6v-7.1h6.6v7.1h4.2v4.8h-4.2v13.5c0,1,0.1,1.7,0.4,2s1.1,0.4,2.4,0.4c0.2,0,0.4,0,0.6,0
				s0.4,0,0.7,0v5l-3.2,0.1c-3.2,0.1-5.3-0.4-6.5-1.6c-0.8-0.8-1.1-2-1.1-3.5V45.6H90.2z"/>
			<path class="st0" d="M125.2,41.2c1.8,0.8,3.3,2.1,4.4,3.8c1,1.5,1.7,3.3,2,5.3c0.2,1.2,0.3,2.9,0.2,5.1h-18.7
				c0.1,2.6,1,4.4,2.7,5.4c1,0.6,2.3,1,3.7,1c1.5,0,2.8-0.4,3.7-1.2c0.5-0.4,1-1,1.4-1.8h6.8c-0.2,1.5-1,3.1-2.5,4.6
				c-2.3,2.5-5.5,3.7-9.6,3.7c-3.4,0-6.4-1.1-9-3.2c-2.6-2.1-3.9-5.5-3.9-10.3c0-4.4,1.2-7.8,3.5-10.2c2.4-2.4,5.4-3.6,9.2-3.6
				C121.4,40,123.4,40.4,125.2,41.2z M115.2,46.9c-0.9,1-1.5,2.3-1.8,4h11.5c-0.1-1.8-0.7-3.1-1.8-4c-1.1-0.9-2.4-1.4-4-1.4
				C117.5,45.5,116.1,46,115.2,46.9z"/>
			<path class="st0" d="M150.1,40c0.1,0,0.3,0,0.6,0v6.9c-0.4,0-0.8-0.1-1.1-0.1s-0.6,0-0.8,0c-2.7,0-4.5,0.9-5.4,2.6
				c-0.5,1-0.8,2.5-0.8,4.6v12.2h-6.7V40.6h6.4v4.5c1-1.7,1.9-2.9,2.7-3.5c1.3-1.1,2.9-1.6,4.9-1.6C149.9,40,150,40,150.1,40z"/>
			<path class="st0" d="M164.6,50.7c1.2-0.2,2.1-0.4,2.7-0.6c1-0.4,1.4-1,1.4-1.9c0-1-0.4-1.8-1.1-2.2c-0.7-0.4-1.8-0.6-3.3-0.6
				c-1.6,0-2.7,0.4-3.4,1.2c-0.5,0.6-0.8,1.4-1,2.4h-6.5c0.1-2.2,0.8-4.1,1.9-5.5c1.8-2.3,4.8-3.4,9.2-3.4c2.8,0,5.3,0.6,7.5,1.7
				c2.2,1.1,3.3,3.2,3.3,6.3v11.8c0,0.8,0,1.8,0,3c0,0.9,0.2,1.5,0.4,1.8s0.5,0.6,1,0.8v1h-7.3c-0.2-0.5-0.3-1-0.4-1.5
				s-0.1-1-0.2-1.6c-0.9,1-2,1.9-3.2,2.6c-1.4,0.8-3.1,1.2-4.9,1.2c-2.3,0-4.3-0.7-5.8-2s-2.3-3.2-2.3-5.6c0-3.1,1.2-5.4,3.7-6.8
				c1.3-0.8,3.3-1.3,5.9-1.6L164.6,50.7z M168.7,53.8c-0.4,0.3-0.9,0.5-1.3,0.6c-0.4,0.2-1,0.3-1.8,0.5l-1.5,0.3
				c-1.4,0.3-2.5,0.6-3.1,0.9c-1.1,0.6-1.6,1.6-1.6,2.8c0,1.1,0.3,2,1,2.5c0.6,0.5,1.4,0.8,2.4,0.8c1.5,0,2.8-0.4,4-1.3
				c1.2-0.8,1.9-2.4,1.9-4.6L168.7,53.8L168.7,53.8z"/>
			<path class="st0" d="M196.5,49.8c-0.1-1-0.4-1.8-1-2.6c-0.8-1-1.9-1.6-3.5-1.6c-2.3,0-3.8,1.1-4.6,3.4c-0.4,1.2-0.7,2.8-0.7,4.7
				s0.2,3.4,0.7,4.5c0.8,2.1,2.3,3.2,4.5,3.2c1.6,0,2.7-0.4,3.3-1.3c0.7-0.8,1.1-1.9,1.2-3.3h6.8c-0.2,2-0.9,4-2.2,5.8
				c-2.1,2.9-5.2,4.4-9.3,4.4s-7.2-1.2-9.1-3.7c-1.9-2.4-2.9-5.6-2.9-9.5c0-4.4,1.1-7.8,3.2-10.3c2.2-2.4,5.1-3.7,8.9-3.7
				c3.2,0,5.8,0.7,7.9,2.2c2,1.4,3.3,4,3.6,7.6h-6.8V49.8z"/>
			<path class="st0" d="M205.5,45.6v-4.8h3.6v-7.1h6.6v7.1h4.2v4.8h-4.2v13.5c0,1,0.1,1.7,0.4,2s1.1,0.4,2.4,0.4c0.2,0,0.4,0,0.6,0
				c0.2,0,0.4,0,0.7,0v5l-3.2,0.1c-3.2,0.1-5.3-0.4-6.5-1.6c-0.8-0.8-1.1-2-1.1-3.5V45.6H205.5z"/>
			<path class="st0" d="M231.1,37.6h-6.8v-6.2h6.8V37.6z M224.3,40.6h6.8v25.6h-6.8V40.6z"/>
			<path class="st0" d="M252.9,40.6h7.2l-9.2,25.6h-7.1l-9.2-25.6h7.5l5.3,18.9L252.9,40.6z"/>
			<path class="st0" d="M279.6,41.2c1.8,0.8,3.3,2.1,4.4,3.8c1,1.5,1.7,3.3,2,5.3c0.2,1.2,0.3,2.9,0.2,5.1h-18.7
				c0.1,2.6,1,4.4,2.7,5.4c1,0.6,2.3,1,3.7,1c1.5,0,2.8-0.4,3.7-1.2c0.5-0.4,1-1,1.4-1.8h6.8c-0.2,1.5-1,3.1-2.5,4.6
				c-2.3,2.5-5.5,3.7-9.6,3.7c-3.4,0-6.4-1.1-9-3.2c-2.6-2.1-3.9-5.5-3.9-10.3c0-4.4,1.2-7.8,3.5-10.2c2.4-2.4,5.4-3.6,9.2-3.6
				C275.8,40,277.8,40.4,279.6,41.2z M269.6,46.9c-0.9,1-1.5,2.3-1.8,4h11.5c-0.1-1.8-0.7-3.1-1.8-4c-1.1-0.9-2.4-1.4-4-1.4
				C271.8,45.5,270.5,46,269.6,46.9z"/>
			<path class="st0" d="M290.7,31.7h14.9c4.1,0,7,1.2,8.7,3.6c1,1.4,1.5,3.1,1.5,4.9c0,2.2-0.6,4-1.9,5.4c-0.6,0.7-1.6,1.4-2.8,2
				c1.8,0.7,3.1,1.4,4,2.3c1.5,1.5,2.3,3.6,2.3,6.2c0,2.2-0.7,4.2-2.1,6c-2.1,2.7-5.4,4-10,4h-14.7V31.7H290.7z M303.9,46.3
				c2,0,3.5-0.3,4.7-0.8c1.7-0.9,2.6-2.4,2.6-4.7s-0.9-3.8-2.8-4.6c-1-0.4-2.6-0.7-4.7-0.7h-8.4v10.7L303.9,46.3L303.9,46.3z
				 M305.5,62.3c2.9,0,5-0.8,6.2-2.5c0.8-1,1.2-2.3,1.2-3.8c0-2.5-1.1-4.2-3.4-5.1c-1.2-0.5-2.8-0.7-4.8-0.7h-9.4v12.1
				C295.3,62.3,305.5,62.3,305.5,62.3z"/>
			<path class="st0" d="M322.4,41.1h4v4.3c0.3-0.8,1.1-1.9,2.4-3.1c1.3-1.2,2.8-1.8,4.4-1.8c0.1,0,0.2,0,0.4,0c0.2,0,0.5,0,1,0.1
				v4.5c-0.2,0-0.5-0.1-0.7-0.1s-0.4,0-0.7,0c-2.1,0-3.8,0.7-4.9,2.1c-1.1,1.4-1.7,2.9-1.7,4.7v14.5h-4.2L322.4,41.1L322.4,41.1z"/>
			<path class="st0" d="M356.3,43.6c2.2,2.2,3.3,5.3,3.3,9.5c0,4.1-1,7.4-2.9,10c-2,2.6-5,4-9.1,4c-3.4,0-6.2-1.2-8.2-3.5
				c-2-2.3-3-5.5-3-9.4c0-4.2,1.1-7.6,3.2-10.1s5-3.8,8.6-3.8C351.4,40.4,354.1,41.4,356.3,43.6z M353.7,60.3c1-2.1,1.5-4.5,1.5-7.1
				c0-2.3-0.4-4.3-1.1-5.7c-1.2-2.3-3.2-3.5-6.1-3.5c-2.6,0-4.4,1-5.6,3s-1.7,4.4-1.7,7.1c0,2.7,0.6,4.9,1.7,6.7
				c1.2,1.8,3,2.7,5.5,2.7C350.8,63.5,352.7,62.5,353.7,60.3z"/>
			<path class="st0" d="M364.4,31.7h4.1v20L379.3,41h5.4l-9.7,9.4l10.2,15.8h-5.4l-7.9-12.8l-3.5,3.4v9.4h-4.1V31.7H364.4z"/>
			<path class="st0" d="M402.9,41.8c1.7,0.8,2.9,1.9,3.8,3.3c0.8,1.3,1.4,2.8,1.7,4.4c0.2,1.2,0.4,3,0.4,5.5h-18.3
				c0.1,2.6,0.7,4.6,1.8,6.2c1.1,1.5,2.9,2.3,5.2,2.3c2.2,0,3.9-0.7,5.2-2.2c0.7-0.8,1.2-1.8,1.6-3h4.2c-0.1,0.9-0.5,2-1.1,3.1
				s-1.3,2.1-2.1,2.8c-1.3,1.3-2.9,2.1-4.7,2.5c-1,0.3-2.2,0.4-3.4,0.4c-3.1,0-5.8-1.1-7.9-3.4c-2.2-2.3-3.2-5.5-3.2-9.6
				c0-4,1.1-7.3,3.3-9.8c2.2-2.5,5-3.8,8.5-3.8C399.5,40.5,401.2,40.9,402.9,41.8z M404.4,51.7c-0.2-1.8-0.6-3.3-1.2-4.4
				c-1.1-2-3.1-3.1-5.8-3.1c-1.9,0-3.5,0.7-4.8,2.1c-1.3,1.4-2,3.2-2.1,5.3h13.9V51.7z"/>
			<path class="st0" d="M413.7,41.1h4v4.3c0.3-0.8,1.1-1.9,2.4-3.1c1.3-1.2,2.8-1.8,4.4-1.8c0.1,0,0.2,0,0.4,0c0.2,0,0.5,0,1,0.1
				v4.5c-0.2,0-0.5-0.1-0.7-0.1s-0.4,0-0.7,0c-2.1,0-3.8,0.7-4.9,2.1c-1.1,1.4-1.7,2.9-1.7,4.7v14.5h-4.2L413.7,41.1L413.7,41.1z"/>
			<path class="st0" d="M432.2,58.4c0.1,1.4,0.5,2.5,1.1,3.2c1.1,1.4,3,2,5.7,2c1.6,0,3-0.3,4.2-1s1.8-1.7,1.8-3.2
				c0-1.1-0.5-1.9-1.5-2.5c-0.6-0.3-1.8-0.7-3.7-1.2l-3.4-0.8c-2.2-0.5-3.8-1.1-4.8-1.8c-1.8-1.1-2.8-2.7-2.8-4.7
				c0-2.4,0.9-4.3,2.6-5.8s4.1-2.2,7-2.2c3.8,0,6.6,1.1,8.3,3.3c1.1,1.4,1.6,2.9,1.5,4.6h-4c-0.1-1-0.4-1.8-1-2.6
				c-1-1.1-2.7-1.7-5.2-1.7c-1.6,0-2.9,0.3-3.7,0.9c-0.8,0.6-1.3,1.4-1.3,2.4c0,1.1,0.6,2,1.7,2.6c0.6,0.4,1.6,0.7,2.8,1l2.8,0.7
				c3.1,0.7,5.2,1.4,6.2,2.1c1.6,1.1,2.5,2.8,2.5,5.1c0,2.2-0.9,4.2-2.6,5.8c-1.7,1.6-4.3,2.4-7.9,2.4c-3.8,0-6.5-0.9-8.1-2.6
				c-1.6-1.7-2.4-3.8-2.5-6.3h4.3V58.4z"/>
		</g>
		<g>
			
				<linearGradient id="SVGID_1_" gradientUnits="userSpaceOnUse" x1="2491.7517" y1="21.238" x2="2519.9517" y2="21.238" gradientTransform="matrix(-1 0 0 -1 2522.9446 72)">
				<stop  offset="0" style="stop-color:#D81222"/>
				<stop  offset="1" style="stop-color:#A50B1A"/>
			</linearGradient>
			<polygon class="st1" points="31.2,66.3 3,66.3 3,35.2 			"/>
			<circle class="st2" cx="27.3" cy="42.8" r="8.4"/>
			<polygon class="st2" points="31.2,2.5 3,35.2 3,66.3 			"/>
		</g>
	</g>
</g>
</svg>
